<svg width="19" height="20" viewBox="0 0 19 20" fill="none" xmlns="http://www.w3.org/2000/svg">
<path d="M17.4168 8.8112V9.9987C17.4168 13.7306 17.4168 15.5967 16.2574 16.756C15.0981 17.9154 13.2321 17.9154 9.50016 17.9154C5.76821 17.9154 3.90223 17.9154 2.74287 16.756C1.5835 15.5967 1.5835 13.7306 1.5835 9.9987C1.5835 6.26674 1.5835 4.40077 2.74287 3.2414C3.90223 2.08203 5.76821 2.08203 9.50016 2.08203H10.6877" stroke="#2D2D2D" stroke-width="1.19712" stroke-linecap="round"/>
<path d="M13.183 3.23396L13.6967 2.72031C14.5478 1.86927 15.9275 1.86927 16.7786 2.72031C17.6296 3.57135 17.6296 4.95115 16.7786 5.80219L16.2649 6.31583M13.183 3.23396C13.183 3.23396 13.2472 4.32545 14.2103 5.28854C15.1734 6.25162 16.2649 6.31583 16.2649 6.31583M13.183 3.23396L8.46086 7.95614C8.14103 8.27599 7.98111 8.43587 7.84355 8.61225C7.6813 8.82022 7.54221 9.0453 7.42872 9.28343C7.33251 9.4853 7.26099 9.69985 7.11795 10.129L6.66 11.5029M16.2649 6.31583L11.5427 11.038C11.2229 11.3578 11.063 11.5177 10.8866 11.6553C10.6786 11.8176 10.4536 11.9566 10.2154 12.0702C10.0136 12.1664 9.79902 12.2378 9.36986 12.3809L7.996 12.8389M6.66 11.5029L6.36367 12.3918C6.29328 12.603 6.34824 12.8358 6.50564 12.9933C6.66304 13.1506 6.89586 13.2056 7.10703 13.1352L7.996 12.8389M6.66 11.5029L7.996 12.8389" stroke="#2D2D2D" stroke-width="1.19712"/>
</svg>
