<?xml version="1.0" encoding="iso-8859-1"?>
<!-- Uploaded to: SVG Repo, www.svgrepo.com, Generator: SVG Repo Mixer Tools -->
<svg height="800px" width="800px" version="1.1" id="Layer_1" xmlns="http://www.w3.org/2000/svg" xmlns:xlink="http://www.w3.org/1999/xlink" 
	 viewBox="0 0 512 512" xml:space="preserve">
<path style="fill:#736056;" d="M361.739,512c-9.217,0-16.696-7.479-16.696-16.696v-66.783c0-9.217,7.479-16.696,16.696-16.696
	c9.217,0,16.696,7.479,16.696,16.696v66.783C378.435,504.521,370.956,512,361.739,512z"/>
<path style="fill:#A6673A;" d="M116.87,311.652c-9.217,0-16.696-7.479-16.696-16.696v-153.63c0-9.217,7.479-16.696,16.696-16.696
	s16.696,7.479,16.696,16.696v153.63C133.565,304.174,126.087,311.652,116.87,311.652z"/>
<path style="fill:#99522E;" d="M395.13,311.652c-9.217,0-16.696-7.479-16.696-16.696v-153.63c0-9.217,7.479-16.696,16.696-16.696
	c9.217,0,16.696,7.479,16.696,16.696v153.63C411.826,304.174,404.348,311.652,395.13,311.652z"/>
<path style="fill:#E6563A;" d="M92.739,33.391H50.087C22.468,33.391,0,55.859,0,83.478s22.468,50.087,50.087,50.087h42.652
	c9.217,0,16.696-7.479,16.696-16.696V50.087C109.434,40.87,101.957,33.391,92.739,33.391z"/>
<path style="fill:#D9472B;" d="M0,83.478c0,27.619,22.468,50.087,50.087,50.087h42.652c9.217,0,16.696-7.479,16.696-16.696V83.478H0
	z"/>
<path style="fill:#E6563A;" d="M445.217,294.957H33.391v133.565c0,9.22,7.475,16.696,16.696,16.696h378.435
	c9.22,0,16.696-7.475,16.696-16.696V294.957z"/>
<path style="fill:#D9472B;" d="M445.217,294.957H239.304v150.261h189.217c9.22,0,16.696-7.475,16.696-16.696V294.957z"/>
<path style="fill:#E6563A;" d="M461.913,33.391h-42.652c-9.217,0-16.696,7.479-16.696,16.696v66.783
	c0,9.217,7.479,16.696,16.696,16.696h42.652c27.619,0,50.087-22.468,50.087-50.087S489.532,33.391,461.913,33.391z"/>
<g>
	<path style="fill:#D9472B;" d="M402.566,116.87c0,9.217,7.479,16.696,16.696,16.696h42.652c27.619,0,50.087-22.468,50.087-50.087
		H402.566V116.87z"/>
	<path style="fill:#D9472B;" d="M328.348,311.652c-9.217,0-16.696-7.479-16.696-16.696v-66.783c0-9.217,7.479-16.696,16.696-16.696
		c9.217,0,16.696,7.479,16.696,16.696v66.783C345.043,304.174,337.565,311.652,328.348,311.652z"/>
</g>
<path style="fill:#F28618;" d="M261.565,311.652c-9.217,0-16.696-7.479-16.696-16.696v-66.783c0-9.217,7.479-16.696,16.696-16.696
	c9.217,0,16.696,7.479,16.696,16.696v66.783C278.261,304.174,270.782,311.652,261.565,311.652z"/>
<path style="fill:#FFC033;" d="M361.739,166.957H150.261c-46.032,0-83.478-37.446-83.478-83.478S104.229,0,150.261,0h211.478
	c46.032,0,83.478,37.446,83.478,83.478S407.771,166.957,361.739,166.957z"/>
<path style="fill:#F9A926;" d="M150.261,166.957h211.478c46.032,0,83.478-37.446,83.478-83.478H66.783
	C66.783,129.51,104.229,166.957,150.261,166.957z"/>
<path style="fill:#736056;" d="M183.652,512c-46.032,0-83.478-37.446-83.478-83.478s37.446-83.478,83.478-83.478
	s83.478,37.446,83.478,83.478S229.684,512,183.652,512z"/>
<path style="fill:#665247;" d="M267.13,428.522c0-46.032-37.446-83.478-83.478-83.478V512
	C229.684,512,267.13,474.554,267.13,428.522z"/>
<path style="fill:#D7EBFF;" d="M183.652,478.609c-27.619,0-50.087-22.468-50.087-50.087s22.468-50.087,50.087-50.087
	s50.087,22.468,50.087,50.087S211.271,478.609,183.652,478.609z"/>
<path style="fill:#BDDEFF;" d="M233.739,428.522c0-27.619-22.468-50.087-50.087-50.087v100.174
	C211.271,478.609,233.739,456.141,233.739,428.522z"/>
<path style="fill:#736056;" d="M183.652,445.217c-9.206,0-16.696-7.49-16.696-16.696c0-9.206,7.49-16.696,16.696-16.696
	s16.696,7.49,16.696,16.696C200.348,437.728,192.858,445.217,183.652,445.217z"/>
<path style="fill:#665247;" d="M200.348,428.522c0-9.206-7.49-16.696-16.696-16.696v33.391
	C192.858,445.217,200.348,437.728,200.348,428.522z"/>
<path style="fill:#FFE14D;" d="M495.304,311.652H50.087c-9.217,0-16.696-7.479-16.696-16.696c0-9.217,7.479-16.696,16.696-16.696
	h445.217c9.217,0,16.696,7.479,16.696,16.696C512,304.174,504.521,311.652,495.304,311.652z"/>
<path style="fill:#FFCC33;" d="M495.304,278.261h-256v33.391h256c9.217,0,16.696-7.479,16.696-16.696
	C512,285.739,504.521,278.261,495.304,278.261z"/>
</svg>