<svg width="23" height="24" viewBox="0 0 23 24" fill="none" xmlns="http://www.w3.org/2000/svg">
<path d="M9.10352 13.916C10.6914 13.916 11.9785 15.2032 11.9785 16.791C11.9785 18.3788 10.6914 19.666 9.10352 19.666C7.5157 19.666 6.22852 18.3788 6.22852 16.791C6.22852 15.2032 7.5157 13.916 9.10352 13.916Z" stroke="#797979" stroke-width="1.4375"/>
<path d="M13.8965 4.33398C12.3086 4.33398 11.0215 5.62116 11.0215 7.20898C11.0215 8.7968 12.3086 10.084 13.8965 10.084C15.4843 10.084 16.7715 8.7968 16.7715 7.20898C16.7715 5.62116 15.4843 4.33398 13.8965 4.33398Z" stroke="#797979" stroke-width="1.4375"/>
<path d="M14.375 16.752H21.0833" stroke="#797979" stroke-width="1.4375" stroke-linecap="round"/>
<path d="M8.62435 7.16992H1.91602" stroke="#797979" stroke-width="1.4375" stroke-linecap="round"/>
<path d="M1.91602 16.752H3.83268" stroke="#797979" stroke-width="1.4375" stroke-linecap="round"/>
<path d="M21.0827 7.16992H19.166" stroke="#797979" stroke-width="1.4375" stroke-linecap="round"/>
</svg>
