<?xml version="1.0" encoding="iso-8859-1"?>
<!-- Uploaded to: SVG Repo, www.svgrepo.com, Generator: SVG Repo Mixer Tools -->
<svg height="800px" width="800px" version="1.1" id="Layer_1" xmlns="http://www.w3.org/2000/svg" xmlns:xlink="http://www.w3.org/1999/xlink" 
	 viewBox="0 0 512 512" xml:space="preserve">
<g transform="translate(1 1)">
	<g>
		<path style="fill:#E2E3E5;" d="M397.222,217.074c-5.689,0-9.481-3.793-9.481-9.481v-61.63
			c0-65.422-59.733-118.519-132.741-118.519c-72.059,0-132.741,56.889-132.741,123.259c0,5.689-3.793,9.481-9.481,9.481
			s-9.481-3.793-9.481-9.481c0-76.8,69.215-142.222,151.704-142.222c83.437,0,151.704,61.63,151.704,137.481v61.63
			C406.704,213.281,402.911,217.074,397.222,217.074z"/>
		<path style="fill:#E2E3E5;" d="M414.289,501.519H292.926c-32.237,0-58.785-26.548-58.785-58.785V256.896
			c0-32.237,26.548-58.785,58.785-58.785h121.363c32.237,0,58.785,26.548,58.785,58.785v184.889
			C473.074,474.97,446.526,501.519,414.289,501.519"/>
	</g>
	<path style="fill:#FFFFFF;" d="M226.556,501.519H105.193c-32.237,0-58.785-26.548-58.785-58.785V256.896
		c0-32.237,26.548-58.785,58.785-58.785h121.363c32.237,0,58.785,26.548,58.785,58.785v184.889
		C285.341,474.97,258.793,501.519,226.556,501.519"/>
	<path style="fill:#CCCCCC;" d="M385.844,501.519H264.481c-32.237,0-58.785-26.548-58.785-58.785V256.896
		c0-32.237,26.548-58.785,58.785-58.785h121.363c32.237,0,58.785,26.548,58.785,58.785v184.889
		C444.63,474.97,418.081,501.519,385.844,501.519"/>
	<path style="fill:#E2E3E5;" d="M357.4,501.519H133.637c-32.237,0-58.785-26.548-58.785-58.785V256.896
		c0-32.237,26.548-58.785,58.785-58.785h222.815c32.237,0,58.785,26.548,58.785,58.785v184.889
		C416.185,474.97,389.637,501.519,357.4,501.519"/>
	<path style="fill:#E0E0E0;" d="M245.519,387.741L245.519,387.741c-15.17,0-28.444-12.326-28.444-28.444v-56.889
		c0-15.17,13.274-28.444,28.444-28.444s28.444,13.274,28.444,28.444v56.889C273.963,375.415,260.689,387.741,245.519,387.741"/>
	<path style="fill:#F0F0F0;" d="M227.504,275.859c-1.896,2.844-3.793,4.741-8.533,4.741c-0.948,0-0.948,0-1.896,0v96.711
		c0,0,0,0,0.948,0c5.689,0,9.481,3.793,9.481,8.533c10.43-3.793,18.015-14.222,18.015-26.548v-56.889
		C245.519,290.081,237.933,279.652,227.504,275.859"/>
	<g>
		<path style="fill:#B6B6B6;" d="M385.844,511H105.193c-37.926,0-68.267-30.341-68.267-68.267V256.896
			c0-37.926,30.341-68.267,68.267-68.267h279.704c37.926,0,68.267,30.341,68.267,68.267v184.889
			C454.111,480.659,423.77,511,385.844,511z M105.193,207.593c-27.496,0-49.304,21.807-49.304,49.304v184.889
			c0,28.444,21.807,50.252,49.304,50.252h279.704c27.496,0,49.304-21.807,49.304-49.304V256.896
			c0-27.496-21.807-49.304-49.304-49.304H105.193z"/>
		<path style="fill:#B6B6B6;" d="M245.519,397.222c-20.859,0-37.926-17.067-37.926-37.926v-56.889
			c0-20.859,17.067-37.926,37.926-37.926s37.926,17.067,37.926,37.926v56.889C283.444,380.156,266.378,397.222,245.519,397.222z
			 M245.519,283.444c-10.43,0-18.963,8.533-18.963,18.963v56.889c0,10.43,8.533,18.963,18.963,18.963
			c10.43,0,18.963-8.533,18.963-18.963v-56.889C264.481,291.978,255.948,283.444,245.519,283.444z"/>
		<path style="fill:#B6B6B6;" d="M387.741,207.593c-5.689,0-9.481-3.793-9.481-9.481v-61.63
			c0-65.422-59.733-118.519-132.741-118.519c-72.059,0-132.741,56.889-132.741,123.259c0,5.689-3.793,9.481-9.481,9.481
			s-9.481-3.793-9.481-9.481C93.815,64.422,163.03-1,245.519-1c83.437,0,151.704,61.63,151.704,137.481v61.63
			C397.222,203.8,393.43,207.593,387.741,207.593z"/>
	</g>
</g>
</svg>